PathFileType  4	(X/Y/Z) C:\Users\antoi\Documents\MyRepositories\mobilecap\ResultsAnalysis
DataRate	CameraRate	NumFrames	NumMarkers	Units	OrigDataRate	OrigDataStartFrame	OrigNumFrames
100.0	100.0	7	51	mm	100.0	33	131
Frame#	Time	r_knee			r_shank_antsup			r_ankle			r_calc			r_5meta			r_toe			L_knee			L_shank_antsup			L_ankle			L_calc			L_5meta			L_toe			r_sh2			r_sh3			r_sh4			L_sh2			L_sh3			r_thigh1			r_thigh2			r_thigh3			r_thigh4			r_thigh5			L_thigh1			L_thigh2			L_thigh3			L_thigh4			r.ASIS			r.PSIS			L.ASIS			L.PSIS			C7			R_Shoulder			L_Shoulder			R_Sternum			L_Sternum			R_humerus			R_elbow_med			R_elbow_lat			R_forearm			R_wrist_radius			R_wrist_ulna			L_humerus			L_elbow_med			L_elbow_lat			L_forearm			L_wrist_radius			L_wrist_ulna			R_HJC			L_HJC			R_HJC_reg			L_HJC_reg			
		X1	Y1	Z1	X2	Y2	Z2	X3	Y3	Z3	X4	Y4	Z4	X5	Y5	Z5	X6	Y6	Z6	X7	Y7	Z7	X8	Y8	Z8	X9	Y9	Z9	X10	Y10	Z10	X11	Y11	Z11	X12	Y12	Z12	X13	Y13	Z13	X14	Y14	Z14	X15	Y15	Z15	X16	Y16	Z16	X17	Y17	Z17	X18	Y18	Z18	X19	Y19	Z19	X20	Y20	Z20	X21	Y21	Z21	X22	Y22	Z22	X23	Y23	Z23	X24	Y24	Z24	X25	Y25	Z25	X26	Y26	Z26	X27	Y27	Z27	X28	Y28	Z28	X29	Y29	Z29	X30	Y30	Z30	X31	Y31	Z31	X32	Y32	Z32	X33	Y33	Z33	X34	Y34	Z34	X35	Y35	Z35	X36	Y36	Z36	X37	Y37	Z37	X38	Y38	Z38	X39	Y39	Z39	X40	Y40	Z40	X41	Y41	Z41	X42	Y42	Z42	X43	Y43	Z43	X44	Y44	Z44	X45	Y45	Z45	X46	Y46	Z46	X47	Y47	Z47	X48	Y48	Z48	X49	Y49	Z49	X50	Y50	Z50	X51	Y51	Z51	

33	0.32000000	222.95769	494.64567	-101.67724	251.95913	396.03658	-117.75450	146.13724	91.58954	-155.10758	84.73508	59.28455	-206.83077	262.81548	44.23560	-112.58749	298.43615	71.52023	-168.40944	410.79566	540.78774	-357.12628	431.70490	446.02314	-343.58221	255.29362	158.54322	-359.38362	170.34870	141.09297	-314.15487	334.44168	64.38706	-389.87130	386.43955	78.89536	-333.74240	234.66425	285.18230	-131.25983	189.50308	399.61423	-74.95734	165.10210	287.43599	-83.76460	364.41920	487.64613	-387.89156	316.34806	376.95483	-401.42586	271.18790	774.39012	-59.54828	280.72535	665.43785	-82.76983	229.03922	632.07676	-51.86294	160.07215	758.21803	-37.81484	174.71981	646.79326	-65.66940	364.92165	791.23256	-372.48090	438.05423	674.47901	-344.96921	283.13820	731.98512	-415.51883	349.24537	620.44134	-380.27129	290.61582	972.92954	-95.64456	85.21355	1000.09289	-183.79971	296.39389	974.67369	-347.24410	91.51875	996.24456	-278.31231	122.13180	1461.51903	-217.97298	187.26305	1432.40906	-55.52006	198.31799	1436.39248	-372.28956	248.98653	1391.51751	-194.82601	247.45876	1393.29600	-240.32461	235.41046	1308.93930	0.54582	178.92326	1096.77147	-26.64329	184.35604	1111.93861	39.75281	252.35370	1062.14613	64.02868	338.03096	912.94987	45.99770	302.64809	907.76954	82.93184	218.36634	1296.81785	-439.12888	136.61346	1103.94856	-387.79049	150.82772	1114.71910	-466.75615	191.58565	1052.55344	-484.43073	203.14615	872.65908	-476.77463	173.29434	886.32620	-515.21018	210.85366	883.28186	-123.64442	218.81650	884.30283	-313.03465	216.27348	900.43411	-132.98488	227.32326	893.68962	-298.58086	
34	0.33000000	226.50956	494.32725	-101.01033	254.44713	395.46450	-117.08062	146.28174	91.74633	-155.20531	84.77841	59.41047	-206.89129	262.83385	44.19530	-112.51624	298.73987	71.44920	-168.36325	425.55206	541.97429	-355.91156	451.54531	448.98638	-342.39564	294.66816	150.68326	-358.00705	210.97014	127.85499	-312.23175	379.05230	61.45952	-389.12712	430.77294	78.84075	-333.27780	236.25639	284.79050	-130.84772	191.92669	399.46806	-74.36907	166.64209	287.51625	-83.42170	381.37327	485.73533	-387.00607	341.18369	372.13629	-400.32917	279.53159	773.45927	-58.85306	287.32946	664.36641	-82.06385	235.06645	631.87109	-51.28308	167.99170	758.98861	-37.18418	180.95111	647.38207	-65.02675	377.87991	791.98010	-371.37822	451.43052	675.56042	-343.54723	296.77924	732.47333	-414.94222	362.98708	621.14851	-379.32556	301.47214	972.35548	-94.37682	96.50900	999.68367	-184.57844	308.87409	974.57113	-346.01004	103.49861	995.62121	-278.82360	134.14647	1461.27947	-217.30421	199.39165	1432.28285	-54.90896	210.22359	1436.03448	-371.79124	260.87381	1391.29533	-194.16302	259.37791	1393.10660	-239.60850	248.73280	1309.44998	1.00211	194.94695	1096.48467	-24.94286	200.58736	1111.84665	41.29175	269.57871	1063.51121	65.35285	359.02785	916.62518	46.85508	323.76103	910.50915	83.77630	228.24607	1296.33994	-439.12739	143.98097	1104.46306	-387.82422	157.14026	1115.55837	-466.97717	196.30102	1052.75169	-485.71885	203.57509	872.64049	-479.88783	173.96540	887.70326	-517.60869	221.77925	882.75413	-123.30518	231.26958	884.00340	-312.62566	227.13444	900.40177	-132.12839	239.41484	893.26468	-297.67190	
35	0.34000000	230.18546	493.93477	-100.45829	257.02297	394.85032	-116.53918	146.43202	91.92342	-155.35293	84.81344	59.55858	-206.98303	262.83861	44.15256	-112.45640	299.00335	71.33544	-168.33789	439.57093	542.23714	-354.95811	470.53660	451.49210	-341.32677	334.24615	143.74121	-356.54880	252.01060	115.76214	-310.30374	423.42028	59.51276	-388.17670	474.48491	79.58377	-332.55204	237.94229	284.36485	-130.53899	194.50377	399.29362	-73.85690	168.30481	287.56759	-83.11131	397.85769	483.12344	-386.27305	365.85866	367.10260	-399.24843	287.96914	772.41995	-58.24690	294.10692	663.23554	-81.50672	241.29792	631.55616	-50.77652	176.14936	759.58527	-36.48336	187.35182	647.86180	-64.35617	390.50172	791.87887	-370.21661	464.21014	675.58762	-342.25885	309.93798	732.35296	-414.43715	376.01434	621.06685	-378.65638	312.29584	971.52911	-93.21180	107.86143	999.12249	-185.35704	321.38669	974.12876	-344.90536	115.58763	994.86197	-279.32990	146.18841	1460.75087	-216.69726	211.49441	1431.81335	-54.32214	222.22521	1435.36743	-371.30749	272.80818	1390.73925	-193.49829	271.36403	1392.60964	-238.89773	261.98868	1309.62375	1.46183	210.88947	1095.91096	-23.30372	216.81129	1111.49262	42.75404	286.73672	1064.59331	66.57003	379.81431	920.04569	47.56207	344.67219	913.01762	84.49320	238.11257	1295.61981	-439.17362	151.45722	1104.72704	-387.84925	163.43054	1116.20952	-467.19972	201.03655	1052.83949	-487.05302	204.52068	872.69054	-482.93423	174.94499	889.05350	-519.91518	232.68620	882.01212	-123.01083	243.66860	883.44476	-312.25138	237.92612	900.07394	-131.44171	251.53631	892.57030	-296.94299	
36	0.35000000	233.98358	493.47961	-100.00623	259.67820	394.20843	-116.07328	146.59891	92.13071	-155.55500	84.86815	59.73261	-207.11590	262.82277	44.10010	-112.40142	299.21865	71.17760	-168.32298	452.93578	541.62383	-354.28538	488.70212	453.57459	-340.43361	373.74230	137.80337	-355.00342	293.15868	104.95314	-308.37523	467.35670	58.62021	-386.86881	517.37803	81.32866	-331.42243	239.69616	283.91637	-130.28161	197.18503	399.11360	-73.41091	170.03636	287.61379	-82.83575	413.95866	479.94164	-385.72348	390.29000	362.00787	-398.23292	296.52372	771.27164	-57.71477	301.06010	662.04394	-81.08936	247.75072	631.13028	-50.33536	184.54939	759.99938	-35.66681	193.94675	648.23891	-63.65914	402.83539	790.94902	-368.99339	476.45084	674.58962	-341.08514	322.72704	731.63277	-414.07323	388.46157	620.20792	-378.29936	323.11820	970.48961	-92.10952	119.29456	998.40364	-186.11948	333.95246	973.38546	-343.90610	127.78918	993.96552	-279.82903	158.25934	1459.94215	-216.17466	223.55757	1431.01001	-53.77632	234.34003	1434.40613	-370.84995	284.78445	1389.85811	-192.84815	283.42410	1391.80899	-238.20447	275.16507	1309.48051	1.90453	226.76359	1095.06617	-21.74086	233.00562	1110.90486	44.13066	303.84323	1065.42117	67.66151	400.36650	923.20644	48.10431	365.38423	915.29053	85.07751	248.00096	1294.67875	-439.26026	159.03820	1104.77185	-387.88345	169.74374	1116.67859	-467.41141	205.83682	1052.82762	-488.41353	205.95890	872.75747	-485.86748	176.12972	890.28215	-522.12878	243.61228	881.07915	-122.73927	256.05636	882.64900	-311.88985	248.70848	899.46510	-130.87218	263.71160	891.62912	-296.35470	
37	0.36000000	237.90320	492.97553	-99.62299	262.41753	393.55393	-115.62620	146.79641	92.37623	-155.81118	84.96141	59.94174	-207.29619	262.78483	44.03439	-112.34353	299.39657	70.98174	-168.30932	465.75376	540.21874	-353.89740	506.08767	455.26991	-339.76419	412.83579	132.88790	-353.37363	334.09773	95.50167	-306.40790	510.62134	58.83049	-385.09824	559.24287	84.25548	-329.81186	241.49647	283.45881	-130.03109	199.92905	398.94632	-73.01579	171.80038	287.67771	-82.59913	429.74642	476.32920	-385.38136	414.35666	356.99174	-397.32344	305.20879	770.01200	-57.23114	308.17078	660.78332	-80.78213	254.42330	630.59690	-49.94028	193.18034	760.23499	-34.71202	200.75354	648.51529	-62.93874	414.94200	789.24602	-367.70622	488.23134	672.64506	-339.98713	335.28074	730.35222	-413.91330	400.48392	618.62157	-378.25003	333.97787	969.27468	-91.02861	130.83019	997.49728	-186.86377	346.60886	972.36912	-342.97349	140.10385	992.89540	-280.32734	170.36278	1458.85903	-215.75623	235.56668	1429.88873	-53.28519	246.58268	1433.16618	-370.43050	296.78963	1388.66645	-192.22967	295.56274	1390.71189	-237.54372	288.24975	1309.03820	2.30931	242.57712	1093.96800	-20.28021	249.13904	1110.09801	45.40631	320.89682	1066.02190	68.61301	420.66446	926.11460	48.47249	385.89547	917.33347	85.52451	257.95158	1293.53413	-439.37380	166.73262	1104.62344	-387.94817	176.14995	1116.96415	-467.60166	210.75491	1052.72065	-489.77975	207.81764	872.78636	-488.66483	177.41557	891.29630	-524.24729	254.60564	879.96840	-122.46297	268.49766	881.61908	-311.51283	259.55558	898.59416	-130.35354	275.97698	890.44875	-295.84493	
38	0.37000000	241.94778	492.43614	-99.27373	265.25615	392.89620	-115.15790	147.03709	92.66591	-156.11487	85.10033	60.19858	-207.52262	262.73105	43.95808	-112.27712	299.55771	70.75519	-168.29070	478.14487	538.13502	-353.77401	522.74209	456.60317	-339.33987	451.19906	128.96741	-351.67166	374.52328	87.41004	-304.35368	552.93788	60.17724	-382.83715	599.84760	88.47815	-327.72080	243.33631	283.00384	-129.76194	202.71781	398.80082	-72.65834	173.58792	287.77582	-82.40589	445.25748	472.41428	-385.25088	437.91384	352.16644	-396.54084	314.02712	768.63724	-56.76507	315.41162	659.44086	-80.54045	261.29683	629.96334	-49.56572	202.02259	760.30946	-33.63292	207.77302	648.68742	-62.20027	426.89105	786.86700	-366.35392	499.66030	669.89163	-338.91574	347.73109	728.58130	-413.98699	412.24023	616.40154	-378.45786	344.90360	967.91562	-89.94147	142.48473	996.36334	-187.60516	359.39288	971.09227	-342.06641	152.53210	991.59138	-280.83870	182.50465	1457.50622	-215.45642	247.50864	1428.47261	-52.85913	258.96063	1431.66423	-370.06009	308.81364	1387.18400	-191.65854	307.78445	1389.32966	-236.93273	301.23361	1308.31454	2.65957	258.32750	1092.63440	-18.95005	265.17855	1109.07804	46.56184	337.87684	1066.41428	69.41375	440.68793	928.78556	48.66303	406.19824	919.16330	85.82922	268.00586	1292.19734	-439.49957	174.55925	1104.30004	-388.06182	182.73391	1117.06140	-467.76524	215.84829	1052.51731	-491.13386	210.02745	872.74002	-491.33215	178.75707	892.03788	-526.26552	265.70918	878.68452	-122.15755	281.05861	880.34085	-311.09438	270.52784	897.49033	-129.82477	288.36468	889.02253	-295.34456	
39	0.38000000	246.12937	491.87303	-98.93280	268.21508	392.23530	-114.65499	147.32907	93.00443	-156.45234	85.28277	60.51626	-207.78357	262.67443	43.87890	-112.20102	299.72487	70.50368	-168.26341	490.22188	535.50435	-353.86128	538.70171	457.58480	-339.14467	488.52425	125.99466	-349.92182	414.14535	80.61299	-302.20027	594.01439	62.67947	-380.14947	638.94017	94.01138	-325.22299	245.22908	282.55669	-129.47003	205.56496	398.67634	-72.33216	175.41841	287.91653	-82.25743	460.48202	468.30007	-385.30424	460.80942	347.60723	-395.87931	322.97399	767.14447	-56.28803	322.75856	658.00397	-80.31405	268.34140	629.23983	-49.18820	211.05190	760.24894	-32.47823	214.98553	648.74719	-61.45237	438.75602	783.95075	-364.93877	510.87296	666.52120	-337.82303	360.18586	726.41657	-414.27074	423.87480	613.68287	-378.83052	355.90669	966.43489	-88.84210	154.26687	994.96816	-188.37556	372.32535	969.55645	-341.15639	165.07390	989.98836	-281.38382	194.69105	1455.89153	-215.28282	259.37440	1426.79152	-52.50526	271.47143	1429.91803	-369.74827	320.85912	1385.43513	-191.14747	320.09409	1387.67881	-236.38823	314.11234	1307.33036	2.94325	274.00130	1091.08333	-17.77364	281.09501	1107.85196	47.57836	354.74742	1066.60833	70.05504	460.41276	931.23635	48.67670	426.27954	920.80672	85.98535	278.20262	1290.67408	-439.62713	182.54119	1103.81244	-388.23682	189.57469	1116.96835	-467.90737	221.17473	1052.21270	-492.46377	212.56227	872.60521	-493.89751	180.21369	892.50539	-528.17679	276.94948	877.22818	-121.81127	293.78788	878.79267	-310.62079	281.65407	896.19550	-129.24389	300.88886	887.33565	-294.79507	
